<?xml version="1.0" encoding="UTF-8" standalone="no"?><svg xmlns="http://www.w3.org/2000/svg" xmlns:xlink="http://www.w3.org/1999/xlink" contentScriptType="application/ecmascript" contentStyleType="text/css" height="671px" preserveAspectRatio="none" style="width:1800px;height:671px;" version="1.1" viewBox="0 0 1800 671" width="1800px" zoomAndPan="magnify"><defs><filter height="300%" id="fdob914y38p7e" width="300%" x="-1" y="-1"><feGaussianBlur result="blurOut" stdDeviation="2.0"/><feColorMatrix in="blurOut" result="blurOut2" type="matrix" values="0 0 0 0 0 0 0 0 0 0 0 0 0 0 0 0 0 0 .4 0"/><feOffset dx="4.0" dy="4.0" in="blurOut2" result="blurOut3"/><feBlend in="SourceGraphic" in2="blurOut3" mode="normal"/></filter></defs><g><!--MD5=[23b08dc254e0f04d3588bdf63a9b02bc]
cluster form--><polygon fill="#FFFFFF" filter="url(#fdob914y38p7e)" points="709,565,754,565,761,587.2969,902,587.2969,902,664,709,664,709,565" style="stroke: #000000; stroke-width: 1.5;"/><line style="stroke: #000000; stroke-width: 1.5;" x1="709" x2="761" y1="587.2969" y2="587.2969"/><text fill="#000000" font-family="sans-serif" font-size="14" font-weight="bold" lengthAdjust="spacingAndGlyphs" textLength="39" x="713" y="579.9951">form</text><!--MD5=[2616919303eaafb9d6c61848da67d75a]
cluster mat--><polygon fill="#FFFFFF" filter="url(#fdob914y38p7e)" points="16,129,55,129,62,151.2969,1153,151.2969,1153,541,16,541,16,129" style="stroke: #000000; stroke-width: 1.5;"/><line style="stroke: #000000; stroke-width: 1.5;" x1="16" x2="62" y1="151.2969" y2="151.2969"/><text fill="#000000" font-family="sans-serif" font-size="14" font-weight="bold" lengthAdjust="spacingAndGlyphs" textLength="33" x="20" y="143.9951">mat</text><!--MD5=[97d2e1412f4f819252238b465f19753e]
cluster plan--><polygon fill="#FFFFFF" filter="url(#fdob914y38p7e)" points="1177,339.5,1218,339.5,1225,361.7969,1728,361.7969,1728,515.5,1177,515.5,1177,339.5" style="stroke: #000000; stroke-width: 1.5;"/><line style="stroke: #000000; stroke-width: 1.5;" x1="1177" x2="1225" y1="361.7969" y2="361.7969"/><text fill="#000000" font-family="sans-serif" font-size="14" font-weight="bold" lengthAdjust="spacingAndGlyphs" textLength="35" x="1181" y="354.4951">plan</text><!--MD5=[857233cdc7018b1e8695fe78ce49561f]
cluster __builtin__--><polygon fill="#FFFFFF" filter="url(#fdob914y38p7e)" points="957,6,1016,6,1023,28.2969,1152,28.2969,1152,105,957,105,957,6" style="stroke: #000000; stroke-width: 1.5;"/><line style="stroke: #000000; stroke-width: 1.5;" x1="957" x2="1023" y1="28.2969" y2="28.2969"/><text fill="#000000" font-family="sans-serif" font-size="14" font-weight="bold" lengthAdjust="spacingAndGlyphs" text-decoration="underline" textLength="53" x="961" y="20.9951">builtin</text><!--MD5=[9a22a188f34a6a14b13ee983a7ad78c4]
class form.Form--><rect codeLine="2" fill="#FEFECE" filter="url(#fdob914y38p7e)" height="48" id="form.Form" style="stroke: #A80036; stroke-width: 1.5;" width="63" x="725.5" y="600"/><ellipse cx="740.5" cy="616" fill="#7FFFD4" rx="11" ry="11" style="stroke: #A80036; stroke-width: 1.0;"/><path d="M744.2813,611.9688 C744.2813,611.5313 744.2656,611.3906 744.1719,611.2344 C744.0313,611 743.75,610.8438 743.4531,610.8438 C743.1094,610.8438 742.9688,610.9844 742.7969,611.4063 C742.2031,611.0313 741.4531,610.8438 740.5781,610.8438 C738.4688,610.8438 736.8906,612.1406 736.8906,613.8594 C736.8906,614.8281 737.4219,615.7344 738.2813,616.2188 C738.8281,616.5313 739.375,616.7031 740.4844,616.8906 C741.6406,617.0938 741.9063,617.1563 742.2656,617.3438 C742.6406,617.5469 742.875,617.8906 742.875,618.25 C742.875,618.9844 741.8906,619.5313 740.6406,619.5313 C739.5156,619.5313 738.4375,619.0469 738.2656,618.4375 C738.1406,617.9688 738.1406,617.9688 738.0156,617.8594 C737.8594,617.7031 737.6406,617.6094 737.4063,617.6094 C737.125,617.6094 736.875,617.7344 736.7031,617.9531 C736.5938,618.125 736.5469,618.3125 736.5469,618.7344 L736.5469,619.8594 C736.5469,620.625 736.8281,620.9844 737.4219,620.9844 C737.6875,620.9844 737.8125,620.9219 738.0938,620.5781 C738.9375,621.0156 739.8281,621.2344 740.75,621.2344 C743.0781,621.2344 744.6406,620.0469 744.6406,618.2813 C744.6406,617.3906 744.3281,616.7031 743.6406,616.1563 C743.1094,615.7344 742.4688,615.4844 740.9844,615.2188 C739.7188,614.9844 739.625,614.9531 739.2969,614.7813 C738.9219,614.5938 738.6563,614.2031 738.6563,613.8438 C738.6563,613.1094 739.5156,612.5469 740.5781,612.5469 C741.6406,612.5469 742.4531,613.0156 742.6094,613.6875 C742.7188,614.2344 742.7188,614.2344 742.8438,614.375 C742.9844,614.5 743.2188,614.6094 743.4531,614.6094 C743.7188,614.6094 743.9688,614.4688 744.1406,614.25 C744.25,614.0781 744.2813,613.9375 744.2813,613.4688 L744.2813,611.9688 Z " fill="#000000"/><text fill="#000000" font-family="sans-serif" font-size="12" lengthAdjust="spacingAndGlyphs" textLength="31" x="754.5" y="620.1543">Form</text><line style="stroke: #A80036; stroke-width: 1.5;" x1="726.5" x2="787.5" y1="632" y2="632"/><line style="stroke: #A80036; stroke-width: 1.5;" x1="726.5" x2="787.5" y1="640" y2="640"/><!--MD5=[3aee6a2224cdbd73d1d53707535ef5fe]
class form.Type--><rect codeLine="4" fill="#FEFECE" filter="url(#fdob914y38p7e)" height="48" id="form.Type" style="stroke: #A80036; stroke-width: 1.5;" width="62" x="824" y="600"/><ellipse cx="839" cy="616" fill="#FF7700" rx="11" ry="11" style="stroke: #A80036; stroke-width: 1.0;"/><path d="M839.4375,613.5313 L841.2813,613.5313 L841.2813,615.125 C841.2813,615.5156 841.3125,615.6875 841.4063,615.8281 C841.5625,616.0781 841.8438,616.2344 842.1406,616.2344 C842.4063,616.2344 842.6563,616.1094 842.8281,615.8906 C842.9688,615.7188 842.9844,615.5938 842.9844,615.125 L842.9844,611.8438 L834.2188,611.8438 L834.2188,615.125 C834.2188,615.5156 834.25,615.6875 834.3281,615.8281 C834.4844,616.0938 834.7813,616.2344 835.0625,616.2344 C835.3438,616.2344 835.5938,616.1094 835.7656,615.8906 C835.875,615.7188 835.9063,615.5781 835.9063,615.125 L835.9063,613.5313 L837.7344,613.5313 L837.7344,620.0469 L836.625,620.0469 C836.1875,620.0469 836.0625,620.0625 835.9063,620.1719 C835.6563,620.3281 835.5,620.6094 835.5,620.9063 C835.5,621.1563 835.6406,621.4219 835.8594,621.5781 C836.0156,621.7031 836.2344,621.75 836.625,621.75 L840.5625,621.75 C840.8906,621.75 841.1563,621.7031 841.2656,621.625 C841.5313,621.4844 841.6719,621.1875 841.6719,620.9063 C841.6719,620.625 841.5469,620.375 841.3125,620.2031 C841.1563,620.0781 841.0156,620.0469 840.5625,620.0469 L839.4375,620.0469 L839.4375,613.5313 Z " fill="#000000"/><text fill="#000000" font-family="sans-serif" font-size="12" lengthAdjust="spacingAndGlyphs" textLength="30" x="853" y="620.1543">Type</text><line style="stroke: #A80036; stroke-width: 1.5;" x1="825" x2="885" y1="632" y2="632"/><line style="stroke: #A80036; stroke-width: 1.5;" x1="825" x2="885" y1="640" y2="640"/><!--MD5=[99e7ec90c52f5c47a423c5e7df7f5812]
class mat.Arr3--><rect codeLine="12" fill="#FEFECE" filter="url(#fdob914y38p7e)" height="176.0469" id="mat.Arr3" style="stroke: #A80036; stroke-width: 1.5;" width="255" x="448.5" y="349"/><ellipse cx="558.75" cy="365" fill="#7FFFD4" rx="11" ry="11" style="stroke: #A80036; stroke-width: 1.0;"/><path d="M562.5313,360.9688 C562.5313,360.5313 562.5156,360.3906 562.4219,360.2344 C562.2813,360 562,359.8438 561.7031,359.8438 C561.3594,359.8438 561.2188,359.9844 561.0469,360.4063 C560.4531,360.0313 559.7031,359.8438 558.8281,359.8438 C556.7188,359.8438 555.1406,361.1406 555.1406,362.8594 C555.1406,363.8281 555.6719,364.7344 556.5313,365.2188 C557.0781,365.5313 557.625,365.7031 558.7344,365.8906 C559.8906,366.0938 560.1563,366.1563 560.5156,366.3438 C560.8906,366.5469 561.125,366.8906 561.125,367.25 C561.125,367.9844 560.1406,368.5313 558.8906,368.5313 C557.7656,368.5313 556.6875,368.0469 556.5156,367.4375 C556.3906,366.9688 556.3906,366.9688 556.2656,366.8594 C556.1094,366.7031 555.8906,366.6094 555.6563,366.6094 C555.375,366.6094 555.125,366.7344 554.9531,366.9531 C554.8438,367.125 554.7969,367.3125 554.7969,367.7344 L554.7969,368.8594 C554.7969,369.625 555.0781,369.9844 555.6719,369.9844 C555.9375,369.9844 556.0625,369.9219 556.3438,369.5781 C557.1875,370.0156 558.0781,370.2344 559,370.2344 C561.3281,370.2344 562.8906,369.0469 562.8906,367.2813 C562.8906,366.3906 562.5781,365.7031 561.8906,365.1563 C561.3594,364.7344 560.7188,364.4844 559.2344,364.2188 C557.9688,363.9844 557.875,363.9531 557.5469,363.7813 C557.1719,363.5938 556.9063,363.2031 556.9063,362.8438 C556.9063,362.1094 557.7656,361.5469 558.8281,361.5469 C559.8906,361.5469 560.7031,362.0156 560.8594,362.6875 C560.9688,363.2344 560.9688,363.2344 561.0938,363.375 C561.2344,363.5 561.4688,363.6094 561.7031,363.6094 C561.9688,363.6094 562.2188,363.4688 562.3906,363.25 C562.5,363.0781 562.5313,362.9375 562.5313,362.4688 L562.5313,360.9688 Z " fill="#000000"/><text fill="#000000" font-family="sans-serif" font-size="12" lengthAdjust="spacingAndGlyphs" textLength="26" x="579.25" y="369.1543">Arr3</text><line style="stroke: #A80036; stroke-width: 1.5;" x1="449.5" x2="702.5" y1="381" y2="381"/><ellipse cx="459.5" cy="392" fill="none" rx="3" ry="3" style="stroke: #038048; stroke-width: 1.0;"/><text fill="#000000" font-family="sans-serif" font-size="11" lengthAdjust="spacingAndGlyphs" textLength="46" x="468.5" y="395.2104">Dat []int</text><line style="stroke: #A80036; stroke-width: 1.5;" x1="449.5" x2="702.5" y1="401.8047" y2="401.8047"/><rect fill="#F24D5C" height="6" style="stroke: #C82930; stroke-width: 1.0;" width="6" x="456.5" y="409.8047"/><text fill="#000000" font-family="sans-serif" font-size="11" lengthAdjust="spacingAndGlyphs" textLength="69" x="468.5" y="416.0151">i(v Vec3) int</text><rect fill="#F24D5C" height="6" style="stroke: #C82930; stroke-width: 1.0;" width="6" x="456.5" y="422.6094"/><text fill="#000000" font-family="sans-serif" font-size="11" lengthAdjust="spacingAndGlyphs" textLength="69" x="468.5" y="428.8198">v(i int) Vec3</text><rect fill="#F24D5C" height="6" style="stroke: #C82930; stroke-width: 1.0;" width="6" x="456.5" y="435.4141"/><text fill="#000000" font-family="sans-serif" font-size="11" lengthAdjust="spacingAndGlyphs" textLength="229" x="468.5" y="441.6245">blend(b Arr3, p Vec3, mode BlendMode)</text><text fill="#000000" font-family="sans-serif" font-size="11" lengthAdjust="spacingAndGlyphs" textLength="0" x="472.5" y="454.4292"/><ellipse cx="459.5" cy="464.0234" fill="#84BE84" rx="3" ry="3" style="stroke: #038048; stroke-width: 1.0;"/><text fill="#000000" font-family="sans-serif" font-size="11" lengthAdjust="spacingAndGlyphs" textLength="87" x="468.5" y="467.2339">Get(v Vec3) int</text><ellipse cx="459.5" cy="476.8281" fill="#84BE84" rx="3" ry="3" style="stroke: #038048; stroke-width: 1.0;"/><text fill="#000000" font-family="sans-serif" font-size="11" lengthAdjust="spacingAndGlyphs" textLength="110" x="468.5" y="480.0386">Set(v Vec3, val int)</text><ellipse cx="459.5" cy="489.6328" fill="#84BE84" rx="3" ry="3" style="stroke: #038048; stroke-width: 1.0;"/><text fill="#000000" font-family="sans-serif" font-size="11" lengthAdjust="spacingAndGlyphs" textLength="84" x="468.5" y="492.8433">Each(itr Arr3Itr)</text><ellipse cx="459.5" cy="502.4375" fill="#84BE84" rx="3" ry="3" style="stroke: #038048; stroke-width: 1.0;"/><text fill="#000000" font-family="sans-serif" font-size="11" lengthAdjust="spacingAndGlyphs" textLength="105" x="468.5" y="505.6479">Find(itr Arr3ItrBool)</text><ellipse cx="459.5" cy="515.2422" fill="#84BE84" rx="3" ry="3" style="stroke: #038048; stroke-width: 1.0;"/><text fill="#000000" font-family="sans-serif" font-size="11" lengthAdjust="spacingAndGlyphs" textLength="117" x="468.5" y="518.4526">Inset(b Arr3, p Vec3)</text><!--MD5=[7079f9275c9b40ebf8fde8506f1a1eab]
class mat.Vec3--><rect codeLine="52" fill="#FEFECE" filter="url(#fdob914y38p7e)" height="112.0234" id="mat.Vec3" style="stroke: #A80036; stroke-width: 1.5;" width="131" x="673.5" y="170.5"/><ellipse cx="719.25" cy="186.5" fill="#7FFFD4" rx="11" ry="11" style="stroke: #A80036; stroke-width: 1.0;"/><path d="M723.0313,182.4688 C723.0313,182.0313 723.0156,181.8906 722.9219,181.7344 C722.7813,181.5 722.5,181.3438 722.2031,181.3438 C721.8594,181.3438 721.7188,181.4844 721.5469,181.9063 C720.9531,181.5313 720.2031,181.3438 719.3281,181.3438 C717.2188,181.3438 715.6406,182.6406 715.6406,184.3594 C715.6406,185.3281 716.1719,186.2344 717.0313,186.7188 C717.5781,187.0313 718.125,187.2031 719.2344,187.3906 C720.3906,187.5938 720.6563,187.6563 721.0156,187.8438 C721.3906,188.0469 721.625,188.3906 721.625,188.75 C721.625,189.4844 720.6406,190.0313 719.3906,190.0313 C718.2656,190.0313 717.1875,189.5469 717.0156,188.9375 C716.8906,188.4688 716.8906,188.4688 716.7656,188.3594 C716.6094,188.2031 716.3906,188.1094 716.1563,188.1094 C715.875,188.1094 715.625,188.2344 715.4531,188.4531 C715.3438,188.625 715.2969,188.8125 715.2969,189.2344 L715.2969,190.3594 C715.2969,191.125 715.5781,191.4844 716.1719,191.4844 C716.4375,191.4844 716.5625,191.4219 716.8438,191.0781 C717.6875,191.5156 718.5781,191.7344 719.5,191.7344 C721.8281,191.7344 723.3906,190.5469 723.3906,188.7813 C723.3906,187.8906 723.0781,187.2031 722.3906,186.6563 C721.8594,186.2344 721.2188,185.9844 719.7344,185.7188 C718.4688,185.4844 718.375,185.4531 718.0469,185.2813 C717.6719,185.0938 717.4063,184.7031 717.4063,184.3438 C717.4063,183.6094 718.2656,183.0469 719.3281,183.0469 C720.3906,183.0469 721.2031,183.5156 721.3594,184.1875 C721.4688,184.7344 721.4688,184.7344 721.5938,184.875 C721.7344,185 721.9688,185.1094 722.2031,185.1094 C722.4688,185.1094 722.7188,184.9688 722.8906,184.75 C723,184.5781 723.0313,184.4375 723.0313,183.9688 L723.0313,182.4688 Z " fill="#000000"/><text fill="#000000" font-family="sans-serif" font-size="12" lengthAdjust="spacingAndGlyphs" textLength="31" x="739.75" y="190.6543">Vec3</text><line style="stroke: #A80036; stroke-width: 1.5;" x1="674.5" x2="803.5" y1="202.5" y2="202.5"/><ellipse cx="684.5" cy="213.5" fill="none" rx="3" ry="3" style="stroke: #038048; stroke-width: 1.0;"/><text fill="#000000" font-family="sans-serif" font-size="11" lengthAdjust="spacingAndGlyphs" textLength="26" x="693.5" y="216.7104">X int</text><ellipse cx="684.5" cy="226.3047" fill="none" rx="3" ry="3" style="stroke: #038048; stroke-width: 1.0;"/><text fill="#000000" font-family="sans-serif" font-size="11" lengthAdjust="spacingAndGlyphs" textLength="25" x="693.5" y="229.5151">Y int</text><ellipse cx="684.5" cy="239.1094" fill="none" rx="3" ry="3" style="stroke: #038048; stroke-width: 1.0;"/><text fill="#000000" font-family="sans-serif" font-size="11" lengthAdjust="spacingAndGlyphs" textLength="26" x="693.5" y="242.3198">Z int</text><line style="stroke: #A80036; stroke-width: 1.5;" x1="674.5" x2="803.5" y1="248.9141" y2="248.9141"/><ellipse cx="684.5" cy="259.9141" fill="#84BE84" rx="3" ry="3" style="stroke: #038048; stroke-width: 1.0;"/><text fill="#000000" font-family="sans-serif" font-size="11" lengthAdjust="spacingAndGlyphs" textLength="105" x="693.5" y="263.1245">Add(w Vec3) Vec3</text><ellipse cx="684.5" cy="272.7188" fill="#84BE84" rx="3" ry="3" style="stroke: #038048; stroke-width: 1.0;"/><text fill="#000000" font-family="sans-serif" font-size="11" lengthAdjust="spacingAndGlyphs" textLength="68" x="693.5" y="275.9292">IsNeg() bool</text><!--MD5=[2e53cf2d371b3eccd8e72e9341ea6b67]
class mat.Dim3--><rect codeLine="26" fill="#FEFECE" filter="url(#fdob914y38p7e)" height="124.8281" id="mat.Dim3" style="stroke: #A80036; stroke-width: 1.5;" width="125" x="513.5" y="164"/><ellipse cx="556.4" cy="180" fill="#7FFFD4" rx="11" ry="11" style="stroke: #A80036; stroke-width: 1.0;"/><path d="M560.1813,175.9688 C560.1813,175.5313 560.1656,175.3906 560.0719,175.2344 C559.9313,175 559.65,174.8438 559.3531,174.8438 C559.0094,174.8438 558.8688,174.9844 558.6969,175.4063 C558.1031,175.0313 557.3531,174.8438 556.4781,174.8438 C554.3688,174.8438 552.7906,176.1406 552.7906,177.8594 C552.7906,178.8281 553.3219,179.7344 554.1813,180.2188 C554.7281,180.5313 555.275,180.7031 556.3844,180.8906 C557.5406,181.0938 557.8063,181.1563 558.1656,181.3438 C558.5406,181.5469 558.775,181.8906 558.775,182.25 C558.775,182.9844 557.7906,183.5313 556.5406,183.5313 C555.4156,183.5313 554.3375,183.0469 554.1656,182.4375 C554.0406,181.9688 554.0406,181.9688 553.9156,181.8594 C553.7594,181.7031 553.5406,181.6094 553.3063,181.6094 C553.025,181.6094 552.775,181.7344 552.6031,181.9531 C552.4938,182.125 552.4469,182.3125 552.4469,182.7344 L552.4469,183.8594 C552.4469,184.625 552.7281,184.9844 553.3219,184.9844 C553.5875,184.9844 553.7125,184.9219 553.9938,184.5781 C554.8375,185.0156 555.7281,185.2344 556.65,185.2344 C558.9781,185.2344 560.5406,184.0469 560.5406,182.2813 C560.5406,181.3906 560.2281,180.7031 559.5406,180.1563 C559.0094,179.7344 558.3688,179.4844 556.8844,179.2188 C555.6188,178.9844 555.525,178.9531 555.1969,178.7813 C554.8219,178.5938 554.5563,178.2031 554.5563,177.8438 C554.5563,177.1094 555.4156,176.5469 556.4781,176.5469 C557.5406,176.5469 558.3531,177.0156 558.5094,177.6875 C558.6188,178.2344 558.6188,178.2344 558.7438,178.375 C558.8844,178.5 559.1188,178.6094 559.3531,178.6094 C559.6188,178.6094 559.8688,178.4688 560.0406,178.25 C560.15,178.0781 560.1813,177.9375 560.1813,177.4688 L560.1813,175.9688 Z " fill="#000000"/><text fill="#000000" font-family="sans-serif" font-size="12" lengthAdjust="spacingAndGlyphs" textLength="31" x="576.6" y="184.1543">Dim3</text><line style="stroke: #A80036; stroke-width: 1.5;" x1="514.5" x2="637.5" y1="196" y2="196"/><ellipse cx="524.5" cy="207" fill="none" rx="3" ry="3" style="stroke: #038048; stroke-width: 1.0;"/><text fill="#000000" font-family="sans-serif" font-size="11" lengthAdjust="spacingAndGlyphs" textLength="29" x="533.5" y="210.2104">W int</text><ellipse cx="524.5" cy="219.8047" fill="none" rx="3" ry="3" style="stroke: #038048; stroke-width: 1.0;"/><text fill="#000000" font-family="sans-serif" font-size="11" lengthAdjust="spacingAndGlyphs" textLength="26" x="533.5" y="223.0151">H int</text><ellipse cx="524.5" cy="232.6094" fill="none" rx="3" ry="3" style="stroke: #038048; stroke-width: 1.0;"/><text fill="#000000" font-family="sans-serif" font-size="11" lengthAdjust="spacingAndGlyphs" textLength="27" x="533.5" y="235.8198">D int</text><line style="stroke: #A80036; stroke-width: 1.5;" x1="514.5" x2="637.5" y1="242.4141" y2="242.4141"/><ellipse cx="524.5" cy="253.4141" fill="#84BE84" rx="3" ry="3" style="stroke: #038048; stroke-width: 1.0;"/><text fill="#000000" font-family="sans-serif" font-size="11" lengthAdjust="spacingAndGlyphs" textLength="52" x="533.5" y="256.6245">Size() int</text><ellipse cx="524.5" cy="266.2188" fill="#84BE84" rx="3" ry="3" style="stroke: #038048; stroke-width: 1.0;"/><text fill="#000000" font-family="sans-serif" font-size="11" lengthAdjust="spacingAndGlyphs" textLength="99" x="533.5" y="269.4292">Oob(v Vec3) bool</text><ellipse cx="524.5" cy="279.0234" fill="#84BE84" rx="3" ry="3" style="stroke: #038048; stroke-width: 1.0;"/><text fill="#000000" font-family="sans-serif" font-size="11" lengthAdjust="spacingAndGlyphs" textLength="76" x="533.5" y="282.2339">Offset() Vec3</text><!--MD5=[c4a9e5426f1c27f08a63f68299eed736]
class mat.RelDim--><rect codeLine="36" fill="#FEFECE" filter="url(#fdob914y38p7e)" height="99.2188" id="mat.RelDim" style="stroke: #A80036; stroke-width: 1.5;" width="135" x="1001.5" y="177"/><ellipse cx="1044.4" cy="193" fill="#7FFFD4" rx="11" ry="11" style="stroke: #A80036; stroke-width: 1.0;"/><path d="M1048.1813,188.9688 C1048.1813,188.5313 1048.1656,188.3906 1048.0719,188.2344 C1047.9313,188 1047.65,187.8438 1047.3531,187.8438 C1047.0094,187.8438 1046.8688,187.9844 1046.6969,188.4063 C1046.1031,188.0313 1045.3531,187.8438 1044.4781,187.8438 C1042.3688,187.8438 1040.7906,189.1406 1040.7906,190.8594 C1040.7906,191.8281 1041.3219,192.7344 1042.1813,193.2188 C1042.7281,193.5313 1043.275,193.7031 1044.3844,193.8906 C1045.5406,194.0938 1045.8063,194.1563 1046.1656,194.3438 C1046.5406,194.5469 1046.775,194.8906 1046.775,195.25 C1046.775,195.9844 1045.7906,196.5313 1044.5406,196.5313 C1043.4156,196.5313 1042.3375,196.0469 1042.1656,195.4375 C1042.0406,194.9688 1042.0406,194.9688 1041.9156,194.8594 C1041.7594,194.7031 1041.5406,194.6094 1041.3063,194.6094 C1041.025,194.6094 1040.775,194.7344 1040.6031,194.9531 C1040.4938,195.125 1040.4469,195.3125 1040.4469,195.7344 L1040.4469,196.8594 C1040.4469,197.625 1040.7281,197.9844 1041.3219,197.9844 C1041.5875,197.9844 1041.7125,197.9219 1041.9938,197.5781 C1042.8375,198.0156 1043.7281,198.2344 1044.65,198.2344 C1046.9781,198.2344 1048.5406,197.0469 1048.5406,195.2813 C1048.5406,194.3906 1048.2281,193.7031 1047.5406,193.1563 C1047.0094,192.7344 1046.3688,192.4844 1044.8844,192.2188 C1043.6188,191.9844 1043.525,191.9531 1043.1969,191.7813 C1042.8219,191.5938 1042.5563,191.2031 1042.5563,190.8438 C1042.5563,190.1094 1043.4156,189.5469 1044.4781,189.5469 C1045.5406,189.5469 1046.3531,190.0156 1046.5094,190.6875 C1046.6188,191.2344 1046.6188,191.2344 1046.7438,191.375 C1046.8844,191.5 1047.1188,191.6094 1047.3531,191.6094 C1047.6188,191.6094 1047.8688,191.4688 1048.0406,191.25 C1048.15,191.0781 1048.1813,190.9375 1048.1813,190.4688 L1048.1813,188.9688 Z " fill="#000000"/><text fill="#000000" font-family="sans-serif" font-size="12" lengthAdjust="spacingAndGlyphs" textLength="41" x="1064.6" y="197.1543">RelDim</text><line style="stroke: #A80036; stroke-width: 1.5;" x1="1002.5" x2="1135.5" y1="209" y2="209"/><ellipse cx="1012.5" cy="220" fill="none" rx="3" ry="3" style="stroke: #038048; stroke-width: 1.0;"/><text fill="#000000" font-family="sans-serif" font-size="11" lengthAdjust="spacingAndGlyphs" textLength="54" x="1021.5" y="223.2104">W float32</text><ellipse cx="1012.5" cy="232.8047" fill="none" rx="3" ry="3" style="stroke: #038048; stroke-width: 1.0;"/><text fill="#000000" font-family="sans-serif" font-size="11" lengthAdjust="spacingAndGlyphs" textLength="51" x="1021.5" y="236.0151">H float32</text><ellipse cx="1012.5" cy="245.6094" fill="none" rx="3" ry="3" style="stroke: #038048; stroke-width: 1.0;"/><text fill="#000000" font-family="sans-serif" font-size="11" lengthAdjust="spacingAndGlyphs" textLength="52" x="1021.5" y="248.8198">D float32</text><line style="stroke: #A80036; stroke-width: 1.5;" x1="1002.5" x2="1135.5" y1="255.4141" y2="255.4141"/><ellipse cx="1012.5" cy="266.4141" fill="#84BE84" rx="3" ry="3" style="stroke: #038048; stroke-width: 1.0;"/><text fill="#000000" font-family="sans-serif" font-size="11" lengthAdjust="spacingAndGlyphs" textLength="109" x="1021.5" y="269.6245">Size(d Dim3) Dim3</text><!--MD5=[7d5c1ee12a30c8ce5f76a39b76540333]
class mat.RelVec--><rect codeLine="44" fill="#FEFECE" filter="url(#fdob914y38p7e)" height="99.2188" id="mat.RelVec" style="stroke: #A80036; stroke-width: 1.5;" width="127" x="839.5" y="177"/><ellipse cx="878.8" cy="193" fill="#7FFFD4" rx="11" ry="11" style="stroke: #A80036; stroke-width: 1.0;"/><path d="M882.5813,188.9688 C882.5813,188.5313 882.5656,188.3906 882.4719,188.2344 C882.3313,188 882.05,187.8438 881.7531,187.8438 C881.4094,187.8438 881.2688,187.9844 881.0969,188.4063 C880.5031,188.0313 879.7531,187.8438 878.8781,187.8438 C876.7688,187.8438 875.1906,189.1406 875.1906,190.8594 C875.1906,191.8281 875.7219,192.7344 876.5813,193.2188 C877.1281,193.5313 877.675,193.7031 878.7844,193.8906 C879.9406,194.0938 880.2063,194.1563 880.5656,194.3438 C880.9406,194.5469 881.175,194.8906 881.175,195.25 C881.175,195.9844 880.1906,196.5313 878.9406,196.5313 C877.8156,196.5313 876.7375,196.0469 876.5656,195.4375 C876.4406,194.9688 876.4406,194.9688 876.3156,194.8594 C876.1594,194.7031 875.9406,194.6094 875.7063,194.6094 C875.425,194.6094 875.175,194.7344 875.0031,194.9531 C874.8938,195.125 874.8469,195.3125 874.8469,195.7344 L874.8469,196.8594 C874.8469,197.625 875.1281,197.9844 875.7219,197.9844 C875.9875,197.9844 876.1125,197.9219 876.3938,197.5781 C877.2375,198.0156 878.1281,198.2344 879.05,198.2344 C881.3781,198.2344 882.9406,197.0469 882.9406,195.2813 C882.9406,194.3906 882.6281,193.7031 881.9406,193.1563 C881.4094,192.7344 880.7688,192.4844 879.2844,192.2188 C878.0188,191.9844 877.925,191.9531 877.5969,191.7813 C877.2219,191.5938 876.9563,191.2031 876.9563,190.8438 C876.9563,190.1094 877.8156,189.5469 878.8781,189.5469 C879.9406,189.5469 880.7531,190.0156 880.9094,190.6875 C881.0188,191.2344 881.0188,191.2344 881.1438,191.375 C881.2844,191.5 881.5188,191.6094 881.7531,191.6094 C882.0188,191.6094 882.2688,191.4688 882.4406,191.25 C882.55,191.0781 882.5813,190.9375 882.5813,190.4688 L882.5813,188.9688 Z " fill="#000000"/><text fill="#000000" font-family="sans-serif" font-size="12" lengthAdjust="spacingAndGlyphs" textLength="41" x="898.2" y="197.1543">RelVec</text><line style="stroke: #A80036; stroke-width: 1.5;" x1="840.5" x2="965.5" y1="209" y2="209"/><ellipse cx="850.5" cy="220" fill="none" rx="3" ry="3" style="stroke: #038048; stroke-width: 1.0;"/><text fill="#000000" font-family="sans-serif" font-size="11" lengthAdjust="spacingAndGlyphs" textLength="51" x="859.5" y="223.2104">X float32</text><ellipse cx="850.5" cy="232.8047" fill="none" rx="3" ry="3" style="stroke: #038048; stroke-width: 1.0;"/><text fill="#000000" font-family="sans-serif" font-size="11" lengthAdjust="spacingAndGlyphs" textLength="50" x="859.5" y="236.0151">Y float32</text><ellipse cx="850.5" cy="245.6094" fill="none" rx="3" ry="3" style="stroke: #038048; stroke-width: 1.0;"/><text fill="#000000" font-family="sans-serif" font-size="11" lengthAdjust="spacingAndGlyphs" textLength="51" x="859.5" y="248.8198">Z float32</text><line style="stroke: #A80036; stroke-width: 1.5;" x1="840.5" x2="965.5" y1="255.4141" y2="255.4141"/><ellipse cx="850.5" cy="266.4141" fill="#84BE84" rx="3" ry="3" style="stroke: #038048; stroke-width: 1.0;"/><text fill="#000000" font-family="sans-serif" font-size="11" lengthAdjust="spacingAndGlyphs" textLength="101" x="859.5" y="269.6245">Pos(d Dim3) Vec3</text><!--MD5=[652357e7b157548bdb6c94defd274195]
class mat.Arr3Itr--><rect codeLine="61" fill="#FEFECE" filter="url(#fdob914y38p7e)" height="48" id="mat.Arr3Itr" style="stroke: #A80036; stroke-width: 1.5;" width="70" x="246" y="413"/><ellipse cx="261" cy="429" fill="#FF7700" rx="11" ry="11" style="stroke: #A80036; stroke-width: 1.0;"/><path d="M261.4375,426.5313 L263.2813,426.5313 L263.2813,428.125 C263.2813,428.5156 263.3125,428.6875 263.4063,428.8281 C263.5625,429.0781 263.8438,429.2344 264.1406,429.2344 C264.4063,429.2344 264.6563,429.1094 264.8281,428.8906 C264.9688,428.7188 264.9844,428.5938 264.9844,428.125 L264.9844,424.8438 L256.2188,424.8438 L256.2188,428.125 C256.2188,428.5156 256.25,428.6875 256.3281,428.8281 C256.4844,429.0938 256.7813,429.2344 257.0625,429.2344 C257.3438,429.2344 257.5938,429.1094 257.7656,428.8906 C257.875,428.7188 257.9063,428.5781 257.9063,428.125 L257.9063,426.5313 L259.7344,426.5313 L259.7344,433.0469 L258.625,433.0469 C258.1875,433.0469 258.0625,433.0625 257.9063,433.1719 C257.6563,433.3281 257.5,433.6094 257.5,433.9063 C257.5,434.1563 257.6406,434.4219 257.8594,434.5781 C258.0156,434.7031 258.2344,434.75 258.625,434.75 L262.5625,434.75 C262.8906,434.75 263.1563,434.7031 263.2656,434.625 C263.5313,434.4844 263.6719,434.1875 263.6719,433.9063 C263.6719,433.625 263.5469,433.375 263.3125,433.2031 C263.1563,433.0781 263.0156,433.0469 262.5625,433.0469 L261.4375,433.0469 L261.4375,426.5313 Z " fill="#000000"/><text fill="#000000" font-family="sans-serif" font-size="12" lengthAdjust="spacingAndGlyphs" textLength="38" x="275" y="433.1543">Arr3Itr</text><line style="stroke: #A80036; stroke-width: 1.5;" x1="247" x2="315" y1="445" y2="445"/><line style="stroke: #A80036; stroke-width: 1.5;" x1="247" x2="315" y1="453" y2="453"/><!--MD5=[b69297b15c3a940b8785f2683457f455]
class mat.Arr3ItrBool--><rect codeLine="63" fill="#FEFECE" filter="url(#fdob914y38p7e)" height="48" id="mat.Arr3ItrBool" style="stroke: #A80036; stroke-width: 1.5;" width="97" x="59.5" y="413"/><ellipse cx="74.5" cy="429" fill="#FF7700" rx="11" ry="11" style="stroke: #A80036; stroke-width: 1.0;"/><path d="M74.9375,426.5313 L76.7813,426.5313 L76.7813,428.125 C76.7813,428.5156 76.8125,428.6875 76.9063,428.8281 C77.0625,429.0781 77.3438,429.2344 77.6406,429.2344 C77.9063,429.2344 78.1563,429.1094 78.3281,428.8906 C78.4688,428.7188 78.4844,428.5938 78.4844,428.125 L78.4844,424.8438 L69.7188,424.8438 L69.7188,428.125 C69.7188,428.5156 69.75,428.6875 69.8281,428.8281 C69.9844,429.0938 70.2813,429.2344 70.5625,429.2344 C70.8438,429.2344 71.0938,429.1094 71.2656,428.8906 C71.375,428.7188 71.4063,428.5781 71.4063,428.125 L71.4063,426.5313 L73.2344,426.5313 L73.2344,433.0469 L72.125,433.0469 C71.6875,433.0469 71.5625,433.0625 71.4063,433.1719 C71.1563,433.3281 71,433.6094 71,433.9063 C71,434.1563 71.1406,434.4219 71.3594,434.5781 C71.5156,434.7031 71.7344,434.75 72.125,434.75 L76.0625,434.75 C76.3906,434.75 76.6563,434.7031 76.7656,434.625 C77.0313,434.4844 77.1719,434.1875 77.1719,433.9063 C77.1719,433.625 77.0469,433.375 76.8125,433.2031 C76.6563,433.0781 76.5156,433.0469 76.0625,433.0469 L74.9375,433.0469 L74.9375,426.5313 Z " fill="#000000"/><text fill="#000000" font-family="sans-serif" font-size="12" lengthAdjust="spacingAndGlyphs" textLength="65" x="88.5" y="433.1543">Arr3ItrBool</text><line style="stroke: #A80036; stroke-width: 1.5;" x1="60.5" x2="155.5" y1="445" y2="445"/><line style="stroke: #A80036; stroke-width: 1.5;" x1="60.5" x2="155.5" y1="453" y2="453"/><!--MD5=[4184fcafdc2e7cd4219e051d4c612e20]
class mat.BlendMode--><rect codeLine="65" fill="#FEFECE" filter="url(#fdob914y38p7e)" height="48" id="mat.BlendMode" style="stroke: #A80036; stroke-width: 1.5;" width="100" x="378" y="202.5"/><ellipse cx="393" cy="218.5" fill="#FF7700" rx="11" ry="11" style="stroke: #A80036; stroke-width: 1.0;"/><path d="M393.4375,216.0313 L395.2813,216.0313 L395.2813,217.625 C395.2813,218.0156 395.3125,218.1875 395.4063,218.3281 C395.5625,218.5781 395.8438,218.7344 396.1406,218.7344 C396.4063,218.7344 396.6563,218.6094 396.8281,218.3906 C396.9688,218.2188 396.9844,218.0938 396.9844,217.625 L396.9844,214.3438 L388.2188,214.3438 L388.2188,217.625 C388.2188,218.0156 388.25,218.1875 388.3281,218.3281 C388.4844,218.5938 388.7813,218.7344 389.0625,218.7344 C389.3438,218.7344 389.5938,218.6094 389.7656,218.3906 C389.875,218.2188 389.9063,218.0781 389.9063,217.625 L389.9063,216.0313 L391.7344,216.0313 L391.7344,222.5469 L390.625,222.5469 C390.1875,222.5469 390.0625,222.5625 389.9063,222.6719 C389.6563,222.8281 389.5,223.1094 389.5,223.4063 C389.5,223.6563 389.6406,223.9219 389.8594,224.0781 C390.0156,224.2031 390.2344,224.25 390.625,224.25 L394.5625,224.25 C394.8906,224.25 395.1563,224.2031 395.2656,224.125 C395.5313,223.9844 395.6719,223.6875 395.6719,223.4063 C395.6719,223.125 395.5469,222.875 395.3125,222.7031 C395.1563,222.5781 395.0156,222.5469 394.5625,222.5469 L393.4375,222.5469 L393.4375,216.0313 Z " fill="#000000"/><text fill="#000000" font-family="sans-serif" font-size="12" lengthAdjust="spacingAndGlyphs" textLength="68" x="407" y="222.6543">BlendMode</text><line style="stroke: #A80036; stroke-width: 1.5;" x1="379" x2="477" y1="234.5" y2="234.5"/><line style="stroke: #A80036; stroke-width: 1.5;" x1="379" x2="477" y1="242.5" y2="242.5"/><!--MD5=[a5de941efa4e8cab1e2bb8c84abe5b21]
class mat.<font color=blue>func</font>(Vec3, int) --><rect fill="#FEFECE" filter="url(#fdob914y38p7e)" height="48" id="mat.&lt;font color=blue&gt;func&lt;/font&gt;(Vec3, int) " style="stroke: #A80036; stroke-width: 1.5;" width="124" x="219" y="202.5"/><ellipse cx="234" cy="218.5" fill="#ADD1B2" rx="11" ry="11" style="stroke: #A80036; stroke-width: 1.0;"/><path d="M236.3438,214.1719 C235.4063,213.7344 234.8125,213.5938 233.9375,213.5938 C231.3125,213.5938 229.3125,215.6719 229.3125,218.3906 L229.3125,219.5156 C229.3125,222.0938 231.4219,223.9844 234.3125,223.9844 C235.5313,223.9844 236.6875,223.6875 237.4375,223.1406 C238.0156,222.7344 238.3438,222.2813 238.3438,221.8906 C238.3438,221.4375 237.9531,221.0469 237.4844,221.0469 C237.2656,221.0469 237.0625,221.125 236.875,221.3125 C236.4219,221.7969 236.4219,221.7969 236.2344,221.8906 C235.8125,222.1563 235.125,222.2813 234.3594,222.2813 C232.3125,222.2813 231.0156,221.1875 231.0156,219.4844 L231.0156,218.3906 C231.0156,216.6094 232.2656,215.2969 234,215.2969 C234.5781,215.2969 235.1875,215.4531 235.6563,215.7031 C236.1406,215.9844 236.3125,216.2031 236.4063,216.6094 C236.4688,217.0156 236.5,217.1406 236.6406,217.2656 C236.7813,217.4063 237.0156,217.5156 237.2344,217.5156 C237.5,217.5156 237.7656,217.375 237.9375,217.1563 C238.0469,217 238.0781,216.8125 238.0781,216.3906 L238.0781,214.9688 C238.0781,214.5313 238.0625,214.4063 237.9688,214.25 C237.8125,213.9844 237.5313,213.8438 237.2344,213.8438 C236.9375,213.8438 236.7344,213.9375 236.5156,214.25 L236.3438,214.1719 Z " fill="#000000"/><text fill="#0000FF" font-family="sans-serif" font-size="12" lengthAdjust="spacingAndGlyphs" textLength="25" x="248" y="222.6543">func</text><text fill="#000000" font-family="sans-serif" font-size="12" lengthAdjust="spacingAndGlyphs" textLength="63" x="273" y="222.6543">(Vec3, int)</text><line style="stroke: #A80036; stroke-width: 1.5;" x1="220" x2="342" y1="234.5" y2="234.5"/><line style="stroke: #A80036; stroke-width: 1.5;" x1="220" x2="342" y1="242.5" y2="242.5"/><!--MD5=[48571c798a05633e0d330a67f55fb9bc]
class mat.<font color=blue>func</font>(Vec3, int) bool--><rect fill="#FEFECE" filter="url(#fdob914y38p7e)" height="48" id="mat.&lt;font color=blue&gt;func&lt;/font&gt;(Vec3, int) bool" style="stroke: #A80036; stroke-width: 1.5;" width="151" x="32.5" y="202.5"/><ellipse cx="47.5" cy="218.5" fill="#ADD1B2" rx="11" ry="11" style="stroke: #A80036; stroke-width: 1.0;"/><path d="M49.8438,214.1719 C48.9063,213.7344 48.3125,213.5938 47.4375,213.5938 C44.8125,213.5938 42.8125,215.6719 42.8125,218.3906 L42.8125,219.5156 C42.8125,222.0938 44.9219,223.9844 47.8125,223.9844 C49.0313,223.9844 50.1875,223.6875 50.9375,223.1406 C51.5156,222.7344 51.8438,222.2813 51.8438,221.8906 C51.8438,221.4375 51.4531,221.0469 50.9844,221.0469 C50.7656,221.0469 50.5625,221.125 50.375,221.3125 C49.9219,221.7969 49.9219,221.7969 49.7344,221.8906 C49.3125,222.1563 48.625,222.2813 47.8594,222.2813 C45.8125,222.2813 44.5156,221.1875 44.5156,219.4844 L44.5156,218.3906 C44.5156,216.6094 45.7656,215.2969 47.5,215.2969 C48.0781,215.2969 48.6875,215.4531 49.1563,215.7031 C49.6406,215.9844 49.8125,216.2031 49.9063,216.6094 C49.9688,217.0156 50,217.1406 50.1406,217.2656 C50.2813,217.4063 50.5156,217.5156 50.7344,217.5156 C51,217.5156 51.2656,217.375 51.4375,217.1563 C51.5469,217 51.5781,216.8125 51.5781,216.3906 L51.5781,214.9688 C51.5781,214.5313 51.5625,214.4063 51.4688,214.25 C51.3125,213.9844 51.0313,213.8438 50.7344,213.8438 C50.4375,213.8438 50.2344,213.9375 50.0156,214.25 L49.8438,214.1719 Z " fill="#000000"/><text fill="#0000FF" font-family="sans-serif" font-size="12" lengthAdjust="spacingAndGlyphs" textLength="25" x="61.5" y="222.6543">func</text><text fill="#000000" font-family="sans-serif" font-size="12" lengthAdjust="spacingAndGlyphs" textLength="94" x="86.5" y="222.6543">(Vec3, int) bool</text><line style="stroke: #A80036; stroke-width: 1.5;" x1="33.5" x2="182.5" y1="234.5" y2="234.5"/><line style="stroke: #A80036; stroke-width: 1.5;" x1="33.5" x2="182.5" y1="242.5" y2="242.5"/><!--MD5=[17d85311c0e01a2e2c6c98e1aa21252d]
class plan.Node--><rect codeLine="72" fill="#FEFECE" filter="url(#fdob914y38p7e)" height="99.2188" id="plan.Node" style="stroke: #A80036; stroke-width: 1.5;" width="280" x="1432" y="387.5"/><ellipse cx="1551.75" cy="403.5" fill="#7FFFD4" rx="11" ry="11" style="stroke: #A80036; stroke-width: 1.0;"/><path d="M1555.5313,399.4688 C1555.5313,399.0313 1555.5156,398.8906 1555.4219,398.7344 C1555.2813,398.5 1555,398.3438 1554.7031,398.3438 C1554.3594,398.3438 1554.2188,398.4844 1554.0469,398.9063 C1553.4531,398.5313 1552.7031,398.3438 1551.8281,398.3438 C1549.7188,398.3438 1548.1406,399.6406 1548.1406,401.3594 C1548.1406,402.3281 1548.6719,403.2344 1549.5313,403.7188 C1550.0781,404.0313 1550.625,404.2031 1551.7344,404.3906 C1552.8906,404.5938 1553.1563,404.6563 1553.5156,404.8438 C1553.8906,405.0469 1554.125,405.3906 1554.125,405.75 C1554.125,406.4844 1553.1406,407.0313 1551.8906,407.0313 C1550.7656,407.0313 1549.6875,406.5469 1549.5156,405.9375 C1549.3906,405.4688 1549.3906,405.4688 1549.2656,405.3594 C1549.1094,405.2031 1548.8906,405.1094 1548.6563,405.1094 C1548.375,405.1094 1548.125,405.2344 1547.9531,405.4531 C1547.8438,405.625 1547.7969,405.8125 1547.7969,406.2344 L1547.7969,407.3594 C1547.7969,408.125 1548.0781,408.4844 1548.6719,408.4844 C1548.9375,408.4844 1549.0625,408.4219 1549.3438,408.0781 C1550.1875,408.5156 1551.0781,408.7344 1552,408.7344 C1554.3281,408.7344 1555.8906,407.5469 1555.8906,405.7813 C1555.8906,404.8906 1555.5781,404.2031 1554.8906,403.6563 C1554.3594,403.2344 1553.7188,402.9844 1552.2344,402.7188 C1550.9688,402.4844 1550.875,402.4531 1550.5469,402.2813 C1550.1719,402.0938 1549.9063,401.7031 1549.9063,401.3438 C1549.9063,400.6094 1550.7656,400.0469 1551.8281,400.0469 C1552.8906,400.0469 1553.7031,400.5156 1553.8594,401.1875 C1553.9688,401.7344 1553.9688,401.7344 1554.0938,401.875 C1554.2344,402 1554.4688,402.1094 1554.7031,402.1094 C1554.9688,402.1094 1555.2188,401.9688 1555.3906,401.75 C1555.5,401.5781 1555.5313,401.4375 1555.5313,400.9688 L1555.5313,399.4688 Z " fill="#000000"/><text fill="#000000" font-family="sans-serif" font-size="12" lengthAdjust="spacingAndGlyphs" textLength="32" x="1572.25" y="407.6543">Node</text><line style="stroke: #A80036; stroke-width: 1.5;" x1="1433" x2="1711" y1="419.5" y2="419.5"/><ellipse cx="1443" cy="430.5" fill="none" rx="3" ry="3" style="stroke: #038048; stroke-width: 1.0;"/><text fill="#000000" font-family="sans-serif" font-size="11" lengthAdjust="spacingAndGlyphs" textLength="65" x="1452" y="433.7104">Root *Node</text><ellipse cx="1443" cy="443.3047" fill="none" rx="3" ry="3" style="stroke: #038048; stroke-width: 1.0;"/><text fill="#000000" font-family="sans-serif" font-size="11" lengthAdjust="spacingAndGlyphs" textLength="84" x="1452" y="446.5151">Nodes []*Node</text><line style="stroke: #A80036; stroke-width: 1.5;" x1="1433" x2="1711" y1="453.1094" y2="453.1094"/><ellipse cx="1443" cy="464.1094" fill="#84BE84" rx="3" ry="3" style="stroke: #038048; stroke-width: 1.0;"/><text fill="#000000" font-family="sans-serif" font-size="11" lengthAdjust="spacingAndGlyphs" textLength="77" x="1452" y="467.3198">Add(a *Node)</text><ellipse cx="1443" cy="476.9141" fill="#84BE84" rx="3" ry="3" style="stroke: #038048; stroke-width: 1.0;"/><text fill="#000000" font-family="sans-serif" font-size="11" lengthAdjust="spacingAndGlyphs" textLength="254" x="1452" y="480.1245">Form(area mat.Dim3, material int) form.Form</text><!--MD5=[4122ae3c60c606aea3a5cf4d244265d4]
class plan.Plan--><rect codeLine="80" fill="#FEFECE" filter="url(#fdob914y38p7e)" height="124.8281" id="plan.Plan" style="stroke: #A80036; stroke-width: 1.5;" width="203" x="1193.5" y="374.5"/><ellipse cx="1279.25" cy="390.5" fill="#7FFFD4" rx="11" ry="11" style="stroke: #A80036; stroke-width: 1.0;"/><path d="M1283.0313,386.4688 C1283.0313,386.0313 1283.0156,385.8906 1282.9219,385.7344 C1282.7813,385.5 1282.5,385.3438 1282.2031,385.3438 C1281.8594,385.3438 1281.7188,385.4844 1281.5469,385.9063 C1280.9531,385.5313 1280.2031,385.3438 1279.3281,385.3438 C1277.2188,385.3438 1275.6406,386.6406 1275.6406,388.3594 C1275.6406,389.3281 1276.1719,390.2344 1277.0313,390.7188 C1277.5781,391.0313 1278.125,391.2031 1279.2344,391.3906 C1280.3906,391.5938 1280.6563,391.6563 1281.0156,391.8438 C1281.3906,392.0469 1281.625,392.3906 1281.625,392.75 C1281.625,393.4844 1280.6406,394.0313 1279.3906,394.0313 C1278.2656,394.0313 1277.1875,393.5469 1277.0156,392.9375 C1276.8906,392.4688 1276.8906,392.4688 1276.7656,392.3594 C1276.6094,392.2031 1276.3906,392.1094 1276.1563,392.1094 C1275.875,392.1094 1275.625,392.2344 1275.4531,392.4531 C1275.3438,392.625 1275.2969,392.8125 1275.2969,393.2344 L1275.2969,394.3594 C1275.2969,395.125 1275.5781,395.4844 1276.1719,395.4844 C1276.4375,395.4844 1276.5625,395.4219 1276.8438,395.0781 C1277.6875,395.5156 1278.5781,395.7344 1279.5,395.7344 C1281.8281,395.7344 1283.3906,394.5469 1283.3906,392.7813 C1283.3906,391.8906 1283.0781,391.2031 1282.3906,390.6563 C1281.8594,390.2344 1281.2188,389.9844 1279.7344,389.7188 C1278.4688,389.4844 1278.375,389.4531 1278.0469,389.2813 C1277.6719,389.0938 1277.4063,388.7031 1277.4063,388.3438 C1277.4063,387.6094 1278.2656,387.0469 1279.3281,387.0469 C1280.3906,387.0469 1281.2031,387.5156 1281.3594,388.1875 C1281.4688,388.7344 1281.4688,388.7344 1281.5938,388.875 C1281.7344,389 1281.9688,389.1094 1282.2031,389.1094 C1282.4688,389.1094 1282.7188,388.9688 1282.8906,388.75 C1283,388.5781 1283.0313,388.4375 1283.0313,387.9688 L1283.0313,386.4688 Z " fill="#000000"/><text fill="#000000" font-family="sans-serif" font-size="12" lengthAdjust="spacingAndGlyphs" textLength="23" x="1299.75" y="394.6543">Plan</text><line style="stroke: #A80036; stroke-width: 1.5;" x1="1194.5" x2="1395.5" y1="406.5" y2="406.5"/><ellipse cx="1204.5" cy="417.5" fill="none" rx="3" ry="3" style="stroke: #038048; stroke-width: 1.0;"/><text fill="#000000" font-family="sans-serif" font-size="11" lengthAdjust="spacingAndGlyphs" textLength="69" x="1213.5" y="420.7104">Name string</text><ellipse cx="1204.5" cy="430.3047" fill="none" rx="3" ry="3" style="stroke: #038048; stroke-width: 1.0;"/><text fill="#000000" font-family="sans-serif" font-size="11" lengthAdjust="spacingAndGlyphs" textLength="98" x="1213.5" y="433.5151">BaseName string</text><ellipse cx="1204.5" cy="443.1094" fill="none" rx="3" ry="3" style="stroke: #038048; stroke-width: 1.0;"/><text fill="#000000" font-family="sans-serif" font-size="11" lengthAdjust="spacingAndGlyphs" textLength="108" x="1213.5" y="446.3198">Created time.Time</text><ellipse cx="1204.5" cy="455.9141" fill="none" rx="3" ry="3" style="stroke: #038048; stroke-width: 1.0;"/><text fill="#000000" font-family="sans-serif" font-size="11" lengthAdjust="spacingAndGlyphs" textLength="84" x="1213.5" y="459.1245">Nodes []*Node</text><line style="stroke: #A80036; stroke-width: 1.5;" x1="1194.5" x2="1395.5" y1="465.7188" y2="465.7188"/><ellipse cx="1204.5" cy="476.7188" fill="#84BE84" rx="3" ry="3" style="stroke: #038048; stroke-width: 1.0;"/><text fill="#000000" font-family="sans-serif" font-size="11" lengthAdjust="spacingAndGlyphs" textLength="177" x="1213.5" y="479.9292">Build(size mat.Dim3) *mat.Arr3</text><ellipse cx="1204.5" cy="489.5234" fill="#84BE84" rx="3" ry="3" style="stroke: #038048; stroke-width: 1.0;"/><text fill="#000000" font-family="sans-serif" font-size="11" lengthAdjust="spacingAndGlyphs" textLength="112" x="1213.5" y="492.7339">Age() time.Duration</text><!--MD5=[aaadaf5c3ad6e0e0dd8a1e035309d301]
class __builtin__.string--><rect fill="#FEFECE" filter="url(#fdob914y38p7e)" height="48" id="__builtin__.string" style="stroke: #A80036; stroke-width: 1.5;" width="66" x="1070" y="41"/><ellipse cx="1085" cy="57" fill="#ADD1B2" rx="11" ry="11" style="stroke: #A80036; stroke-width: 1.0;"/><path d="M1087.3438,52.6719 C1086.4063,52.2344 1085.8125,52.0938 1084.9375,52.0938 C1082.3125,52.0938 1080.3125,54.1719 1080.3125,56.8906 L1080.3125,58.0156 C1080.3125,60.5938 1082.4219,62.4844 1085.3125,62.4844 C1086.5313,62.4844 1087.6875,62.1875 1088.4375,61.6406 C1089.0156,61.2344 1089.3438,60.7813 1089.3438,60.3906 C1089.3438,59.9375 1088.9531,59.5469 1088.4844,59.5469 C1088.2656,59.5469 1088.0625,59.625 1087.875,59.8125 C1087.4219,60.2969 1087.4219,60.2969 1087.2344,60.3906 C1086.8125,60.6563 1086.125,60.7813 1085.3594,60.7813 C1083.3125,60.7813 1082.0156,59.6875 1082.0156,57.9844 L1082.0156,56.8906 C1082.0156,55.1094 1083.2656,53.7969 1085,53.7969 C1085.5781,53.7969 1086.1875,53.9531 1086.6563,54.2031 C1087.1406,54.4844 1087.3125,54.7031 1087.4063,55.1094 C1087.4688,55.5156 1087.5,55.6406 1087.6406,55.7656 C1087.7813,55.9063 1088.0156,56.0156 1088.2344,56.0156 C1088.5,56.0156 1088.7656,55.875 1088.9375,55.6563 C1089.0469,55.5 1089.0781,55.3125 1089.0781,54.8906 L1089.0781,53.4688 C1089.0781,53.0313 1089.0625,52.9063 1088.9688,52.75 C1088.8125,52.4844 1088.5313,52.3438 1088.2344,52.3438 C1087.9375,52.3438 1087.7344,52.4375 1087.5156,52.75 L1087.3438,52.6719 Z " fill="#000000"/><text fill="#000000" font-family="sans-serif" font-size="12" lengthAdjust="spacingAndGlyphs" textLength="34" x="1099" y="61.1543">string</text><line style="stroke: #A80036; stroke-width: 1.5;" x1="1071" x2="1135" y1="73" y2="73"/><line style="stroke: #A80036; stroke-width: 1.5;" x1="1071" x2="1135" y1="81" y2="81"/><!--MD5=[c19428f004744b1d1b93edb75ef0309b]
class __builtin__.uint8--><rect fill="#FEFECE" filter="url(#fdob914y38p7e)" height="48" id="__builtin__.uint8" style="stroke: #A80036; stroke-width: 1.5;" width="61" x="973.5" y="41"/><ellipse cx="988.5" cy="57" fill="#ADD1B2" rx="11" ry="11" style="stroke: #A80036; stroke-width: 1.0;"/><path d="M990.8438,52.6719 C989.9063,52.2344 989.3125,52.0938 988.4375,52.0938 C985.8125,52.0938 983.8125,54.1719 983.8125,56.8906 L983.8125,58.0156 C983.8125,60.5938 985.9219,62.4844 988.8125,62.4844 C990.0313,62.4844 991.1875,62.1875 991.9375,61.6406 C992.5156,61.2344 992.8438,60.7813 992.8438,60.3906 C992.8438,59.9375 992.4531,59.5469 991.9844,59.5469 C991.7656,59.5469 991.5625,59.625 991.375,59.8125 C990.9219,60.2969 990.9219,60.2969 990.7344,60.3906 C990.3125,60.6563 989.625,60.7813 988.8594,60.7813 C986.8125,60.7813 985.5156,59.6875 985.5156,57.9844 L985.5156,56.8906 C985.5156,55.1094 986.7656,53.7969 988.5,53.7969 C989.0781,53.7969 989.6875,53.9531 990.1563,54.2031 C990.6406,54.4844 990.8125,54.7031 990.9063,55.1094 C990.9688,55.5156 991,55.6406 991.1406,55.7656 C991.2813,55.9063 991.5156,56.0156 991.7344,56.0156 C992,56.0156 992.2656,55.875 992.4375,55.6563 C992.5469,55.5 992.5781,55.3125 992.5781,54.8906 L992.5781,53.4688 C992.5781,53.0313 992.5625,52.9063 992.4688,52.75 C992.3125,52.4844 992.0313,52.3438 991.7344,52.3438 C991.4375,52.3438 991.2344,52.4375 991.0156,52.75 L990.8438,52.6719 Z " fill="#000000"/><text fill="#000000" font-family="sans-serif" font-size="12" lengthAdjust="spacingAndGlyphs" textLength="29" x="1002.5" y="61.1543">uint8</text><line style="stroke: #A80036; stroke-width: 1.5;" x1="974.5" x2="1033.5" y1="73" y2="73"/><line style="stroke: #A80036; stroke-width: 1.5;" x1="974.5" x2="1033.5" y1="81" y2="81"/><!--MD5=[8369da81538619f161eac60970b36598]
reverse link mat.Arr3 to form.Form--><path codeLine="7" d="M670.371,534.457 C694.292,558.906 717.851,582.9859 734.348,599.8475 " fill="none" id="mat.Arr3-backto-form.Form" style="stroke: #A80036; stroke-width: 1.0;"/><polygon fill="#A80036" points="661.2,525.083,662.5367,532.1691,669.5918,533.6607,668.2551,526.5746,661.2,525.083" style="stroke: #A80036; stroke-width: 1.0;"/><!--MD5=[a9341d705f7702e88a39b233218ecedb]
reverse link mat.Vec3 to form.Form--><path codeLine="8" d="M742.119,296.04 C746.236,386.491 753.272,541.091 755.936,599.6194 " fill="none" id="mat.Vec3-backto-form.Form" style="stroke: #A80036; stroke-width: 1.0;"/><polygon fill="#A80036" points="741.522,282.909,737.7984,289.0844,742.0667,294.8966,745.7902,288.7213,741.522,282.909" style="stroke: #A80036; stroke-width: 1.0;"/><!--MD5=[bb5e0d472e7d9a16b21f541029559ef9]
reverse link mat.Dim3 to mat.Arr3--><path codeLine="68" d="M576,302.248 C576,317.389 576,333.435 576,348.957 " fill="none" id="mat.Dim3-backto-mat.Arr3" style="stroke: #A80036; stroke-width: 1.0;"/><polygon fill="#A80036" points="576,289.211,572,295.211,576,301.211,580,295.211,576,289.211" style="stroke: #A80036; stroke-width: 1.0;"/><!--MD5=[1eac36308618ed4e326cb48370ba0d6a]
reverse link mat.RelDim to plan.Node--><path codeLine="91" d="M1149.55,244.728 C1221.07,261.654 1327.36,290.862 1414,331.5 C1446.45,346.722 1479.92,367.926 1507.64,387.259 " fill="none" id="mat.RelDim-backto-plan.Node" style="stroke: #A80036; stroke-width: 1.0;"/><polygon fill="#A80036" points="1136.62,241.71,1141.5529,246.9699,1148.3055,244.4395,1143.3726,239.1796,1136.62,241.71" style="stroke: #A80036; stroke-width: 1.0;"/><!--MD5=[93070df67643e58849ca4c04eb294d0d]
reverse link mat.RelVec to plan.Node--><path codeLine="92" d="M970.534,282.752 C974.956,285.105 979.459,287.218 984,289 C1162.77,359.154 1233.04,267.198 1414,331.5 C1449.64,344.164 1485.14,366.538 1513.44,387.342 " fill="none" id="mat.RelVec-backto-plan.Node" style="stroke: #A80036; stroke-width: 1.0;"/><polygon fill="#A80036" points="959.05,276.029,962.2077,282.512,969.4064,282.0907,966.2488,275.6077,959.05,276.029" style="stroke: #A80036; stroke-width: 1.0;"/><!--MD5=[f1c89a482a281c2c53d89a12b38fcfd2]
reverse link __builtin__.string to form.Type--><path codeLine="95" d="M1141.58,68.511 C1255.47,78.247 1590.8,124.147 1728,331.5 C1781.34,412.116 1793.4,477.818 1728,549 C1669.92,612.213 1035.4,621.484 886.255,622.7923 " fill="none" id="__builtin__.string-backto-form.Type" style="stroke: #A80036; stroke-width: 1.0; stroke-dasharray: 7.0,7.0;"/><rect fill="#FFFFFF" height="10" style="stroke: #A80036; stroke-width: 1.5;" width="10" x="1131.33" y="63.074"/><!--MD5=[1c3cf0448a0671a03181882c6b9c3717]
reverse link __builtin__.uint8 to mat.BlendMode--><path codeLine="96" d="M968.311,65.967 C866.239,66.471 575.349,72.254 496,121 C465.569,139.694 446.117,177.702 436.133,202.361 " fill="none" id="__builtin__.uint8-backto-mat.BlendMode" style="stroke: #A80036; stroke-width: 1.0; stroke-dasharray: 7.0,7.0;"/><rect fill="#FFFFFF" height="10" style="stroke: #A80036; stroke-width: 1.5;" width="10" x="968.317" y="60.946"/><!--MD5=[26de54e9c7f866f04e018b692e70cd80]
reverse link mat.<font color=blue>func</font>(Vec3, int)  to mat.Arr3Itr--><path codeLine="97" d="M281,255.747 C281,297.34 281,374.284 281,412.787 " fill="none" id="mat.&lt;font color=blue&gt;func&lt;/font&gt;(Vec3, int) -backto-mat.Arr3Itr" style="stroke: #A80036; stroke-width: 1.0; stroke-dasharray: 7.0,7.0;"/><rect fill="#FFFFFF" height="10" style="stroke: #A80036; stroke-width: 1.5;" width="10" x="276" y="245.61"/><!--MD5=[6eaa6b3d47c9cbe2af8d49cb8c063e61]
reverse link mat.<font color=blue>func</font>(Vec3, int) bool to mat.Arr3ItrBool--><path codeLine="98" d="M108,255.747 C108,297.34 108,374.284 108,412.787 " fill="none" id="mat.&lt;font color=blue&gt;func&lt;/font&gt;(Vec3, int) bool-backto-mat.Arr3ItrBool" style="stroke: #A80036; stroke-width: 1.0; stroke-dasharray: 7.0,7.0;"/><rect fill="#FFFFFF" height="10" style="stroke: #A80036; stroke-width: 1.5;" width="10" x="103" y="245.61"/><!--MD5=[e5d52cb3ecdc04b4ca366d4589d09088]
@startuml
namespace form {
    class Form << (S,Aquamarine) >> {
    }
    class form.Type << (T, #FF7700) >>  {
    }
}
"mat.Arr3" *- - "form.Form"
"mat.Vec3" *- - "form.Form"


namespace mat {
    class Arr3 << (S,Aquamarine) >> {
        + Dat []int

        - i(v Vec3) int
        - v(i int) Vec3
        - blend(b Arr3, p Vec3, mode BlendMode) 

        + Get(v Vec3) int
        + Set(v Vec3, val int) 
        + Each(itr Arr3Itr) 
        + Find(itr Arr3ItrBool) 
        + Inset(b Arr3, p Vec3) 

    }
    class Dim3 << (S,Aquamarine) >> {
        + W int
        + H int
        + D int

        + Size() int
        + Oob(v Vec3) bool
        + Offset() Vec3

    }
    class RelDim << (S,Aquamarine) >> {
        + W float32
        + H float32
        + D float32

        + Size(d Dim3) Dim3

    }
    class RelVec << (S,Aquamarine) >> {
        + X float32
        + Y float32
        + Z float32

        + Pos(d Dim3) Vec3

    }
    class Vec3 << (S,Aquamarine) >> {
        + X int
        + Y int
        + Z int

        + Add(w Vec3) Vec3
        + IsNeg() bool

    }
    class mat.Arr3Itr << (T, #FF7700) >>  {
    }
    class mat.Arr3ItrBool << (T, #FF7700) >>  {
    }
    class mat.BlendMode << (T, #FF7700) >>  {
    }
}
"mat.Dim3" *- - "mat.Arr3"


namespace plan {
    class Node << (S,Aquamarine) >> {
        + Root *Node
        + Nodes []*Node

        + Add(a *Node) 
        + Form(area mat.Dim3, material int) form.Form

    }
    class Plan << (S,Aquamarine) >> {
        + Name string
        + BaseName string
        + Created time.Time
        + Nodes []*Node

        + Build(size mat.Dim3) *mat.Arr3
        + Age() time.Duration

    }
}
"mat.RelDim" *- - "plan.Node"
"mat.RelVec" *- - "plan.Node"


"__builtin__.string" #.. "form.Type"
"__builtin__.uint8" #.. "mat.BlendMode"
"mat.<font color=blue>func</font>(Vec3, int) " #.. "mat.Arr3Itr"
"mat.<font color=blue>func</font>(Vec3, int) bool" #.. "mat.Arr3ItrBool"
@enduml

PlantUML version 1.2020.20beta13(Unknown compile time)
(GPL source distribution)
Java Runtime: Java(TM) SE Runtime Environment
JVM: Java HotSpot(TM) 64-Bit Server VM
Default Encoding: UTF-8
Language: en
Country: US
--></g></svg>